<svg width="48" height="48" viewBox="0 0 48 48" fill="none" xmlns="http://www.w3.org/2000/svg">
<mask id="mask0_445_404" style="mask-type:alpha" maskUnits="userSpaceOnUse" x="4" y="3" width="40" height="42">
<path d="M19 4.78592C22.094 2.99959 25.906 2.99959 29 4.78592L38.0526 10.0124C41.1466 11.7987 43.0526 15.1 43.0526 18.6727V29.1257C43.0526 32.6983 41.1466 35.9996 38.0526 37.7859L29 43.0124C25.906 44.7987 22.094 44.7987 19 43.0124L9.94744 37.7859C6.85343 35.9996 4.94744 32.6983 4.94744 29.1257V18.6727C4.94744 15.1 6.85343 11.7987 9.94744 10.0124L19 4.78592Z" fill="#C4C4C4"/>
</mask>
<g mask="url(#mask0_445_404)">
<path d="M19 4.78592C22.094 2.99959 25.906 2.99959 29 4.78592L38.0526 10.0124C41.1466 11.7987 43.0526 15.1 43.0526 18.6727V29.1257C43.0526 32.6983 41.1466 35.9996 38.0526 37.7859L29 43.0124C25.906 44.7987 22.094 44.7987 19 43.0124L9.94744 37.7859C6.85343 35.9996 4.94744 32.6983 4.94744 29.1257V18.6727C4.94744 15.1 6.85343 11.7987 9.94744 10.0124L19 4.78592Z" fill="#EA1D5D"/>
<path d="M16.5001 15.117C15.6716 15.117 15.0001 15.7886 15.0001 16.617V24.0188C15 24.0277 15.0001 24.0365 15.0002 24.0454C15.0092 25.8251 15.5456 27.5621 16.5416 29.0369C17.5376 30.5118 18.9485 31.6582 20.596 32.3313C22.2434 33.0044 24.0535 33.174 25.7973 32.8186C27.5412 32.4633 29.1405 31.5989 30.3931 30.3347C31.6457 29.0706 32.4955 27.4634 32.8349 25.7163C33.1743 23.9693 32.9882 22.1609 32.2999 20.5197C31.6118 18.8784 30.4525 17.4781 28.9686 16.4957C27.4847 15.5132 25.7429 14.9926 23.9632 15C23.7659 15.0008 23.5706 15.0406 23.3885 15.117C23.2066 15.1934 23.0414 15.3048 22.9024 15.4451C22.7636 15.5853 22.6536 15.7515 22.5789 15.9342C22.5042 16.1169 22.4663 16.3125 22.4671 16.51C22.4681 16.7073 22.5079 16.9026 22.5843 17.0845C22.6607 17.2665 22.7722 17.4316 22.9123 17.5707C23.0525 17.7095 23.2187 17.8195 23.4014 17.8942C23.5842 17.9688 23.7798 18.0067 23.9771 18.0059C25.1634 18.0006 26.3248 18.3471 27.3141 19.0018C28.3035 19.6564 29.0765 20.5898 29.5354 21.6838C29.9944 22.7777 30.1187 23.9832 29.8925 25.1478C29.6664 26.3124 29.1 27.3837 28.265 28.2265C27.4299 29.0691 26.3638 29.6453 25.2013 29.8821C24.0388 30.1189 22.8322 30.0057 21.7341 29.5568C20.636 29.1079 19.6957 28.3435 19.032 27.3602C18.3683 26.3768 18.0112 25.2182 18.0056 24.0319C18.0058 23.9872 18.0039 23.9426 18.0001 23.8983V16.617C18.0001 15.7886 17.3285 15.117 16.5001 15.117Z" fill="white"/>
<path d="M25.8852 22.4321C26.8387 23.3857 26.8387 24.9316 25.8851 25.8852C24.9316 26.8388 23.3856 26.8388 22.432 25.8853C21.4785 24.9317 21.4785 23.3857 22.432 22.4321C23.3856 21.4785 24.9316 21.4786 25.8852 22.4321Z" fill="white"/>
<path d="M16.5001 15.117C15.6716 15.117 15.0001 15.7886 15.0001 16.617V24.0188C15 24.0277 15.0001 24.0365 15.0002 24.0454C15.0092 25.8251 15.5456 27.5621 16.5416 29.0369C17.5376 30.5118 18.9485 31.6582 20.596 32.3313C22.2434 33.0044 24.0535 33.174 25.7973 32.8186C27.5412 32.4633 29.1405 31.5989 30.3931 30.3347C31.6457 29.0706 32.4955 27.4634 32.8349 25.7163C33.1743 23.9693 32.9882 22.1609 32.2999 20.5197C31.6118 18.8784 30.4525 17.4781 28.9686 16.4957C27.4847 15.5132 25.7429 14.9926 23.9632 15C23.7659 15.0008 23.5706 15.0406 23.3885 15.117C23.2066 15.1934 23.0414 15.3048 22.9024 15.4451C22.7636 15.5853 22.6536 15.7515 22.5789 15.9342C22.5042 16.1169 22.4663 16.3125 22.4671 16.51C22.4681 16.7073 22.5079 16.9026 22.5843 17.0845C22.6607 17.2665 22.7722 17.4316 22.9123 17.5707C23.0525 17.7095 23.2187 17.8195 23.4014 17.8942C23.5842 17.9688 23.7798 18.0067 23.9771 18.0059C25.1634 18.0006 26.3248 18.3471 27.3141 19.0018C28.3035 19.6564 29.0765 20.5898 29.5354 21.6838C29.9944 22.7777 30.1187 23.9832 29.8925 25.1478C29.6664 26.3124 29.1 27.3837 28.265 28.2265C27.4299 29.0691 26.3638 29.6453 25.2013 29.8821C24.0388 30.1189 22.8322 30.0057 21.7341 29.5568C20.636 29.1079 19.6957 28.3435 19.032 27.3602C18.3683 26.3768 18.0112 25.2182 18.0056 24.0319C18.0058 23.9872 18.0039 23.9426 18.0001 23.8983V16.617C18.0001 15.7886 17.3285 15.117 16.5001 15.117Z" stroke="white" stroke-width="0.8"/>
<path d="M25.8852 22.4321C26.8387 23.3857 26.8387 24.9316 25.8851 25.8852C24.9316 26.8388 23.3856 26.8388 22.432 25.8853C21.4785 24.9317 21.4785 23.3857 22.432 22.4321C23.3856 21.4785 24.9316 21.4786 25.8852 22.4321Z" stroke="white" stroke-width="0.8"/>
</g>
</svg>
